<?xml version="1.0" encoding="utf-8"?>
<!-- Generator: Adobe Illustrator 28.0.0, SVG Export Plug-In . SVG Version: 6.00 Build 0)  -->
<svg version="1.1" id="Слой_1" xmlns="http://www.w3.org/2000/svg" xmlns:xlink="http://www.w3.org/1999/xlink" x="0px" y="0px"
	 viewBox="0 0 128 128" style="enable-background:new 0 0 128 128;" xml:space="preserve">
<style type="text/css">
	.st0{fill:#FF9A00;stroke:#000000;stroke-miterlimit:10;}
	.st1{fill:#330000;}
</style>
<rect x="16.1" y="18" class="st0" width="96.2" height="84"/>
<path class="st1" d="M105.3,1.6H22.7C10.2,1.6,0,11.7,0,24.2c0,0,0,0,0,0.1v79.5c0,12.5,10.1,22.7,22.6,22.7c0,0,0,0,0.1,0h82.7
	c12.5,0,22.7-10.1,22.7-22.6c0,0,0,0,0-0.1V24.3C128,11.8,117.9,1.6,105.3,1.6C105.4,1.6,105.4,1.6,105.3,1.6z M78.2,89.6H67.1
	c-0.4,0-0.7-0.2-0.8-0.6l-4.4-12.7H42l-4,12.5c-0.1,0.5-0.5,0.8-1,0.8H27c-0.6,0-0.7-0.3-0.6-1l17.1-49.4c0.2-0.5,0.3-1.1,0.5-1.8
	c0.2-1.1,0.3-2.3,0.3-3.5c0-0.3,0.2-0.5,0.4-0.6h13.8c0.4,0,0.6,0.2,0.7,0.4l19.5,54.9C78.9,89.3,78.8,89.5,78.2,89.6L78.2,89.6z
	 M96.6,89c0,0.6-0.2,0.8-0.7,0.8H85.5c-0.4,0-0.8-0.3-0.8-0.7c0-0.1,0-0.1,0-0.2V47.9c0-0.5,0.2-0.7,0.7-0.7H96
	c0.5,0,0.7,0.3,0.7,0.7L96.6,89z M95.5,40.8c-1.3,1.3-3,2-4.8,1.9c-1.8,0-3.5-0.6-4.8-1.9c-1.2-1.3-1.9-3.1-1.8-4.9
	c-0.1-1.8,0.6-3.5,1.9-4.7c1.3-1.2,3-1.9,4.7-1.9c1.8-0.1,3.6,0.6,4.9,1.9c1.2,1.3,1.8,3,1.8,4.7C97.4,37.7,96.8,39.5,95.5,40.8z
	 M58.7,65.4H45.1c0.8-2.2,1.6-4.8,2.3-7.5s1.7-5.3,2.5-7.9c0.7-2.3,1.3-4.6,1.8-6.9h0.1c0.4,1.3,0.8,2.7,1.2,4.2s0.9,3.1,1.4,4.8
	s1,3.2,1.5,4.9s1,3.2,1.4,4.6S58.3,64.3,58.7,65.4z"/>
</svg>
