<?xml version="1.0" encoding="utf-8"?>
<!-- Generator: Adobe Illustrator 28.0.0, SVG Export Plug-In . SVG Version: 6.00 Build 0)  -->
<svg version="1.1" id="Слой_1" xmlns="http://www.w3.org/2000/svg" xmlns:xlink="http://www.w3.org/1999/xlink" x="0px" y="0px"
	 viewBox="0 0 128 128" style="enable-background:new 0 0 128 128;" xml:space="preserve">
<style type="text/css">
	.st0{fill:#31A8FF;}
	.st1{fill:#001E36;}
</style>
<rect x="19.4" y="23.9" class="st0" width="96.1" height="81.5"/>
<path class="st1" d="M22.7,1.6C10.1,1.6,0,11.7,0,24.3v79.5c0,12.5,10.1,22.7,22.7,22.7h82.7c12.5,0,22.7-10.1,22.7-22.7V24.3
	c0-12.5-10.1-22.7-22.7-22.7H22.7z M45.9,33.3c4.4,0,8,0.5,11,1.7c2.7,0.9,5.1,2.4,7.1,4.4c1.7,1.7,3,3.8,3.9,6.1
	c0.8,2.2,1.2,4.5,1.2,6.9c0,4.6-1.1,8.4-3.2,11.4c-2.1,3-5.1,5.2-8.6,6.5c-3.6,1.3-7.6,1.8-12,1.8c-1.3,0-2.1,0-2.7-0.1
	s-1.3-0.1-2.3-0.1v17.1c0.1,0.4-0.2,0.7-0.6,0.7H29.4c-0.4,0-0.6-0.2-0.6-0.7V34.2c0-0.4,0.2-0.6,0.5-0.6c0.9,0,1.8,0,3-0.1
	c1.3-0.1,2.6-0.1,4.1-0.1c1.4-0.1,3-0.1,4.6-0.1C42.7,33.3,44.3,33.3,45.9,33.3L45.9,33.3z M47.1,43.8c-0.3,0-0.5,0-0.8,0
	c-1.4,0-2.6,0-3.6,0.1c-1.1-0.1-1.8,0-2.2,0.1v17.9c0.7,0.1,1.4,0.1,2.1,0.1h2.8c2.1,0,4.2-0.3,6.1-1c1.7-0.5,3.2-1.5,4.4-2.8
	c1.1-1.3,1.7-3.1,1.7-5.5c0.1-1.7-0.4-3.3-1.2-4.7c-0.9-1.4-2.2-2.5-3.7-3C50.8,44.2,49,43.9,47.1,43.8L47.1,43.8z M91.8,46.6
	c2.2,0,4.4,0.2,6.6,0.5c1.6,0.2,3.1,0.6,4.6,1.2c0.2,0.1,0.4,0.3,0.5,0.5c0.1,0.2,0.1,0.4,0.1,0.6v8.7c0,0.2-0.1,0.4-0.3,0.5
	c-0.5,0.1-0.7,0.1-1,0c-1.6-0.9-3.3-1.4-5.1-1.8c-2-0.4-3.9-0.7-6-0.7c-1.1-0.1-2.2,0.1-3.2,0.4c-0.7,0.2-1.3,0.5-1.7,1.1
	C86.2,58,86,58.5,86,59s0.2,1,0.5,1.4c0.5,0.6,1.1,1.1,1.8,1.4c1.2,0.6,2.5,1.2,3.8,1.8c2.9,1,5.7,2.3,8.2,3.9
	c1.8,1.1,3.2,2.6,4.2,4.4c0.9,1.7,1.3,3.6,1.2,5.5c0,2.5-0.7,5-2.1,7.1c-1.5,2.1-3.6,3.8-6,4.7c-2.6,1.1-5.8,1.7-9.7,1.7
	c-2.5,0-4.9-0.2-7.3-0.7c-1.9-0.3-3.7-0.9-5.4-1.7c-0.4-0.2-0.6-0.6-0.6-1v-9.3c0-0.2,0.1-0.4,0.2-0.5c0.2-0.1,0.3-0.1,0.5,0.1
	c2.1,1.2,4.3,2.1,6.6,2.6c2,0.5,4.2,0.8,6.3,0.8c2,0,3.5-0.3,4.4-0.7c0.9-0.4,1.4-1.3,1.4-2.2c0-0.7-0.4-1.4-1.3-2.1
	c-0.9-0.7-2.6-1.5-5.2-2.5c-2.7-0.9-5.2-2.2-7.6-3.8c-1.7-1.2-3.1-2.7-4.1-4.5c-0.9-1.7-1.3-3.6-1.2-5.4c0-2.3,0.6-4.5,1.8-6.5
	c1.3-2.1,3.3-3.8,5.6-4.9C84.9,47.1,88,46.6,91.8,46.6L91.8,46.6z"/>
</svg>
