<?xml version="1.0" encoding="utf-8"?>
<!-- Generator: Adobe Illustrator 28.0.0, SVG Export Plug-In . SVG Version: 6.00 Build 0)  -->
<svg version="1.1" id="Слой_1" xmlns="http://www.w3.org/2000/svg" xmlns:xlink="http://www.w3.org/1999/xlink" x="0px" y="0px"
	 viewBox="0 0 128 128" style="enable-background:new 0 0 128 128;" xml:space="preserve">
<style type="text/css">
	.st0{fill:#9999FF;}
	.st1{fill:#00005B;}
</style>
<rect x="17.3" y="24" class="st0" width="93.6" height="81.5"/>
<path class="st1" d="M50.3,38.5h-7.4v20.7h7.4c5,0,9.1-4.1,9.1-9.1v-2.4C59.4,42.6,55.3,38.5,50.3,38.5z"/>
<path class="st1" d="M0,24.7v78.6C0,116.9,11.1,128,24.7,128h78.6c13.6,0,24.7-11.1,24.7-24.7V24.7C128,11.1,116.9,0,103.3,0H24.7
	C11.1,0,0,11.1,0,24.7z M51.2,67.5h-8.3v21.3h-9.6V30.3h18.5c9.4-0.1,17.1,7.4,17.2,16.8v2.3C69,59.3,61,67.4,51.2,67.5z M97.3,53.3
	c0,0-7,0-10.1,1.3v34.2H77.1V48.9c0,0,10.2-5.1,20.2-3.8C97.3,45.1,97.3,53.3,97.3,53.3z"/>
</svg>
